:version 1.10
:name ASF
:units
  mass 1
  length 1
  angle deg
:documentation
  ASF file generated by Kaydara
:root
  axis xyz
  order  tx ty tz rx ry rz
  position 0 0 0
  orientation 0 0 0
:bonedata
  begin
    id 1
    name RightUpLegDummy
    direction -0.718183 -0.695806 0.00816078
    length 4.904
    axis 0 0 0 xyz
  end
  begin
    id 2
    name RightUpLeg
    direction 3.53373e-006 -0.995788 0.0916898
    length 17.4976
    axis -3.49089 -0.000906625 0.000286804 xyz
    dof rx ry rz
  end
  begin
    id 3
    name RightLeg
    direction 0.00371092 -0.995096 -0.0988419
    length 16.5821
    axis 3.68512 0.0193738 -0.131023 xyz
    dof rx ry rz
  end
  begin
    id 4
    name RightFoot
    direction 0.00079151 -0.46099 0.887405
    length 3.77069
    axis 4.81691e-005 -0.120479 -0.188788 xyz
    dof rx ry rz
  end
  begin
    id 5
    name RightToes
    direction 0 0 0
    length 0
    axis 0 0 0 xyz
    dof rx ry rz
  end
  begin
    id 6
    name SpineDummy
    direction 8.3039e-015 1 4.57515e-016
    length 4.6813
    axis 0 0 0 xyz
  end
  begin
    id 7
    name Spine
    direction -3.15643e-008 0.999988 0.00495137
    length 10.1015
    axis -0.001389 0.000121418 2.40972e-006 xyz
    dof rx ry rz
  end
  begin
    id 8
    name Spine1
    direction 0 0 0
    length 0
    axis -0.001389 0.000121451 1.30017e-006 xyz
    dof rx ry rz
  end
  begin
    id 9
    name HEadDummy
    direction -1.99912e-008 0.999999 0.00127422
    length 3.43865
    axis -0.001389 0.000121451 1.30017e-006 xyz
  end
  begin
    id 10
    name HEad
    direction 0 0 0
    length 0
    axis 0 0 0 xyz
    dof rx ry rz
  end
  begin
    id 11
    name LeftShoulder1Dummy
    direction 0.998891 -0.0402509 -0.0244456
    length 3.5433
    axis -0.001389 0.000121451 1.30017e-006 xyz
  end
  begin
    id 12
    name LeftShoulder1
    direction 0.99951 -0.000327763 0.0313091
    length 4.05031
    axis -0.001389 0.000121451 1.30017e-006 xyz
    dof rx ry rz
  end
  begin
    id 13
    name LeftArm
    direction 0.998561 -0.00100056 -0.0536182
    length 10.3537
    axis -23.1894 0.134784 0.967509 xyz
    dof rx ry rz
  end
  begin
    id 14
    name LeftForeArm
    direction 0.998903 0.00866432 0.046012
    length 8.70632
    axis -9.91835 -0.06569 -0.177794 xyz
    dof rx ry rz
  end
  begin
    id 15
    name LeftHand
    direction 0 0 0
    length 0
    axis 0 0 0 xyz
    dof rx ry rz
  end
  begin
    id 16
    name RightShoulderDummy
    direction -0.998891 -0.0402509 -0.0244414
    length 3.5433
    axis -0.001389 0.000121451 1.30017e-006 xyz
  end
  begin
    id 17
    name RightShoulder
    direction -0.99951 -0.000327807 0.0313133
    length 4.05031
    axis 0.215806 0.000203643 -0.0068026 xyz
    dof rx ry rz
  end
  begin
    id 18
    name RightArm
    direction -0.998573 -0.000999564 -0.053403
    length 10.3947
    axis -23.2009 -0.134239 -0.964101 xyz
    dof rx ry rz
  end
  begin
    id 19
    name RightForeArm
    direction -0.998898 0.00868028 0.0461306
    length 8.68355
    axis -9.92322 0.0658061 0.178868 xyz
    dof rx ry rz
  end
  begin
    id 20
    name RightHand
    direction 0 0 0
    length 0
    axis 0 0 0 xyz
    dof rx ry rz
  end
  begin
    id 21
    name LeftUpLegDummy
    direction 0.718183 -0.695806 0.00816078
    length 4.904
    axis 0 0 0 xyz
  end
  begin
    id 22
    name LeftUpLeg
    direction -6.81752e-006 -0.995793 0.0916337
    length 17.4976
    axis -3.48766 0.00143442 -0.000524262 xyz
    dof rx ry rz
  end
  begin
    id 23
    name LeftLeg
    direction -0.00601358 -0.995091 -0.0987824
    length 16.5821
    axis 3.68178 -0.00654042 -0.000285133 xyz
    dof rx ry rz
  end
  begin
    id 24
    name LeftFoot
    direction -0.00417578 -0.460984 0.887399
    length 3.77069
    axis 1.87233e-006 4.66016e-005 -8.6538e-006 xyz
    dof rx ry rz
  end
  begin
    id 25
    name LeftToes
    direction 0 0 0
    length 0
    axis 0 0 0 xyz
    dof rx ry rz
  end
:hierarchy
  begin
    root RightUpLegDummy SpineDummy LeftUpLegDummy
    RightUpLegDummy RightUpLeg
    RightUpLeg RightLeg
    RightLeg RightFoot
    RightFoot RightToes
    SpineDummy Spine
    Spine Spine1
    Spine1 HEadDummy LeftShoulder1Dummy RightShoulderDummy
    HEadDummy HEad
    LeftShoulder1Dummy LeftShoulder1
    LeftShoulder1 LeftArm
    LeftArm LeftForeArm
    LeftForeArm LeftHand
    RightShoulderDummy RightShoulder
    RightShoulder RightArm
    RightArm RightForeArm
    RightForeArm RightHand
    LeftUpLegDummy LeftUpLeg
    LeftUpLeg LeftLeg
    LeftLeg LeftFoot
    LeftFoot LeftToes
  end

:SAMPLES-PER-SECOND 30
:FULLY-SPECIFIED
:DEGREES
671
root  15.0885 40.6535 10.0178 158.11 86.8509 159.984
RightUpLeg  3.0978 -11.5506 -12.0575
RightLeg  5.33749 -11.4309 2.79484
RightFoot  -0.728086 -0.404639 4.21227
RightToes  0.000481921 0.542163 -0.142578
Spine  -3.28919 1.18704 0.678494
Spine1  14.9309 0.840483 1.44319
HEad  16.2709 -5.73399 -0.733156
LeftShoulder1  9.79378 -13.9572 -48.9711
LeftArm  -7.7112 14.9814 -24.6107
LeftForeArm  174.564 -55.5506 -165.783
LeftHand  -0.25398 0.0180481 5.50724
RightShoulder  4.38252 7.89578 32.5027
RightArm  -7.22989 16.1351 30.8466
RightForeArm  96.5493 74.8938 130.711
RightHand  -2.15125 4.72567 -24.6771
LeftUpLeg  2.87683 7.4737 8.97159
LeftLeg  0.358976 12.0789 -3.17303
LeftFoot  2.82331 0.771527 -6.35835
LeftToes  1.06245e-005 4.65869e-005 -8.65517e-006
672
root  15.0906 40.6539 10.0149 156.849 86.9792 158.731
RightUpLeg  3.05672 -11.5734 -12.0855
RightLeg  5.38122 -11.2632 2.80258
RightFoot  -0.742905 -0.403249 4.19642
RightToes  0.000481921 0.542163 -0.142578
Spine  -3.10429 0.977456 0.579857
Spine1  14.8937 0.609574 1.47862
HEad  16.1285 -5.26023 -0.826921
LeftShoulder1  9.76167 -13.934 -48.875
LeftArm  -7.72278 14.9582 -24.8807
LeftForeArm  174.503 -55.4585 -165.825
LeftHand  -0.25398 0.0180481 5.50724
RightShoulder  4.47797 7.93979 33.1873
RightArm  -7.18929 13.1704 31.5617
RightForeArm  110.539 71.6913 142.088
RightHand  -1.93727 3.94617 -24.0847
LeftUpLeg  2.91867 7.47451 8.95932
LeftLeg  0.372329 12.2128 -3.17825
LeftFoot  2.79878 0.77107 -6.35854
LeftToes  1.06245e-005 4.65869e-005 -8.65517e-006
673
root  15.0876 40.6542 10.0061 155.028 87.1285 156.929
RightUpLeg  3.00712 -11.5974 -12.1311
RightLeg  5.42409 -11.0627 2.80354
RightFoot  -0.737451 -0.400631 4.16102
RightToes  0.000481921 0.542163 -0.142578
Spine  -2.93666 0.799571 0.687515
Spine1  14.8561 0.495608 1.22812
HEad  16.1004 -5.13392 -0.772667
LeftShoulder1  9.71246 -13.9184 -48.6712
LeftArm  -7.62119 14.8148 -25.1373
LeftForeArm  174.473 -55.5055 -165.799
LeftHand  -0.25398 0.0180481 5.50724
RightShoulder  4.59224 8.03065 33.8662
RightArm  -7.16045 10.176 32.3095
RightForeArm  118.887 68.3213 149.284
RightHand  -1.8234 3.5004 -23.8033
LeftUpLeg  2.97155 7.47948 8.93239
LeftLeg  0.383578 12.3747 -3.20028
LeftFoot  2.77282 0.768508 -6.33927
LeftToes  1.06245e-005 4.65869e-005 -8.65517e-006
674
root  15.0847 40.6546 9.99349 153.242 87.2908 155.156
RightUpLeg  2.97298 -11.5835 -12.147
RightLeg  5.40758 -10.8992 2.78666
RightFoot  -0.704105 -0.401529 4.17958
RightToes  0.000481921 0.542163 -0.142578
Spine  -2.81879 0.676649 0.828018
Spine1  14.8154 0.432626 0.998102
HEad  16.3399 -5.09583 -0.710783
LeftShoulder1  9.69721 -13.9186 -48.5935
LeftArm  -7.49051 14.513 -25.2013
LeftForeArm  174.414 -55.5866 -165.753
LeftHand  -0.25398 0.0180481 5.50724
RightShoulder  4.66075 8.09124 34.2453
RightArm  -7.08841 7.00318 33.2547
RightForeArm  123.916 65.0521 154.057
RightHand  -1.84636 3.56314 -23.9289
LeftUpLeg  3.02616 7.49385 8.9185
LeftLeg  0.385681 12.5341 -3.22758
LeftFoot  2.74316 0.763681 -6.31283
LeftToes  1.06245e-005 4.65869e-005 -8.65517e-006
675
root  15.0858 40.655 9.98285 151.928 87.4272 153.863
RightUpLeg  2.98884 -11.5529 -12.1426
RightLeg  5.33438 -10.7833 2.77459
RightFoot  -0.674864 -0.406637 4.26277
RightToes  0.000481921 0.542163 -0.142578
Spine  -2.72428 0.577855 0.812274
Spine1  14.801 0.325178 1.00867
HEad  16.7909 -4.87465 -0.734449
LeftShoulder1  9.68184 -13.883 -48.6158
LeftArm  -7.42631 14.118 -25.2549
LeftForeArm  174.36 -55.5585 -165.763
LeftHand  -0.25398 0.0180481 5.50724
RightShoulder  4.68984 8.11469 34.4124
RightArm  -6.90567 3.76465 34.2806
RightForeArm  127.648 62.0236 157.42
RightHand  -1.88048 3.69728 -24.0129
LeftUpLeg  3.09435 7.52689 8.93635
LeftLeg  0.373475 12.6284 -3.26529
LeftFoot  2.712 0.760507 -6.29785
LeftToes  1.06245e-005 4.65869e-005 -8.65517e-006
676
root  15.0881 40.6554 9.97526 150.893 87.5121 152.856
RightUpLeg  3.03442 -11.5584 -12.1656
RightLeg  5.26798 -10.6693 2.79368
RightFoot  -0.669371 -0.41009 4.31942
RightToes  0.000481921 0.542163 -0.142578
Spine  -2.56206 0.474007 0.546568
Spine1  14.7166 0.116073 1.35575
HEad  17.3308 -4.49449 -0.940919
LeftShoulder1  9.64385 -13.7747 -48.7292
LeftArm  -7.43961 13.818 -25.3611
LeftForeArm  174.388 -55.3735 -165.859
LeftHand  -0.25398 0.0180481 5.50724
RightShoulder  4.71562 8.13443 34.5634
RightArm  -6.56166 0.54296 35.1691
RightForeArm  131.148 59.277 159.933
RightHand  -1.82147 3.52544 -23.7125
LeftUpLeg  3.17046 7.56357 8.95863
LeftLeg  0.350984 12.6623 -3.31349
LeftFoot  2.68459 0.758316 -6.29373
LeftToes  1.06245e-005 4.65869e-005 -8.65517e-006
677
root  15.0895 40.6558 9.96662 150.196 87.5486 152.16
RightUpLeg  3.04681 -11.5871 -12.2021
RightLeg  5.23862 -10.5837 2.82083
RightFoot  -0.66242 -0.408425 4.29562
RightToes  0.000481921 0.542163 -0.142578
Spine  -2.32667 0.354208 0.0841669
Spine1  14.478 -0.193271 1.9916
HEad  17.9255 -4.10447 -1.33591
LeftShoulder1  9.6073 -13.6197 -48.9846
LeftArm  -7.51793 13.7606 -25.3566
LeftForeArm  174.475 -55.0987 -166.004
LeftHand  -0.25398 0.0180481 5.50724
RightShoulder  4.73014 8.12274 34.7267
RightArm  -6.00825 -2.63665 35.8393
RightForeArm  134.358 56.8435 161.847
RightHand  -1.77054 3.41966 -23.3408
LeftUpLeg  3.19138 7.57571 8.95195
LeftLeg  0.353092 12.6881 -3.33988
LeftFoot  2.65646 0.756278 -6.28971
LeftToes  1.06245e-005 4.65869e-005 -8.65517e-006
678
root  15.0899 40.6562 9.95613 150.358 87.5377 152.281
RightUpLeg  3.01428 -11.5832 -12.2012
RightLeg  5.22429 -10.6056 2.81047
RightFoot  -0.639766 -0.405488 4.25098
RightToes  0.000481921 0.542163 -0.142578
Spine  -2.16473 0.201588 -0.427921
Spine1  14.2638 -0.558492 2.69849
HEad  18.518 -3.70889 -1.74342
LeftShoulder1  9.56683 -13.4605 -49.2359
LeftArm  -7.68716 13.8919 -25.2608
LeftForeArm  174.543 -54.8307 -166.142
LeftHand  -0.25398 0.0180481 5.50724
RightShoulder  4.71906 8.0403 34.9183
RightArm  -5.2579 -5.64284 36.229
RightForeArm  136.736 54.7168 163.294
RightHand  -1.85255 3.83563 -23.3322
LeftUpLeg  3.12638 7.56074 8.9227
LeftLeg  0.395678 12.7035 -3.32532
LeftFoot  2.62549 0.754137 -6.28369
LeftToes  1.06245e-005 4.65869e-005 -8.65517e-006
679
root  15.0922 40.6564 9.94803 151.188 87.4619 153.071
RightUpLeg  2.99972 -11.5557 -12.1881
RightLeg  5.21439 -10.7194 2.76729
RightFoot  -0.634209 -0.405724 4.2544
RightToes  0.000481921 0.542163 -0.142578
Spine  -2.17489 0.0101733 -0.908444
Spine1  14.3121 -0.930338 3.28371
HEad  18.9509 -3.25029 -1.98425
LeftShoulder1  9.49212 -13.316 -49.2703
LeftArm  -7.94963 14.0504 -25.2708
LeftForeArm  174.608 -54.6186 -166.251
LeftHand  -0.25398 0.0180481 5.50724
RightShoulder  4.71099 7.92822 35.2425
RightArm  -4.45717 -8.36116 36.202
RightForeArm  138.292 52.8012 164.433
RightHand  -1.97251 4.38881 -23.4518
LeftUpLeg  3.05812 7.54351 8.89271
LeftLeg  0.417978 12.6516 -3.3149
LeftFoot  2.61066 0.751803 -6.27125
LeftToes  1.06245e-005 4.65869e-005 -8.65517e-006
680
root  15.0984 40.6566 9.94303 151.901 87.3158 153.774
RightUpLeg  3.03756 -11.5662 -12.2329
RightLeg  5.21513 -10.8365 2.74117
RightFoot  -0.662931 -0.407962 4.28754
RightToes  0.000481921 0.542163 -0.142578
Spine  -2.23619 -0.190928 -1.40423
Spine1  14.4902 -1.28787 3.79061
HEad  19.1576 -2.80361 -2.09346
LeftShoulder1  9.40461 -13.1961 -49.1663
LeftArm  -8.22449 14.205 -25.3459
LeftForeArm  174.739 -54.4732 -166.332
LeftHand  -0.25398 0.0180481 5.50724
RightShoulder  4.72395 7.83655 35.6808
RightArm  -3.75731 -10.891 35.7504
RightForeArm  139.689 51.0322 165.397
RightHand  -1.96547 4.44101 -23.2511
LeftUpLeg  3.05693 7.53765 8.85814
LeftLeg  0.359113 12.5165 -3.36052
LeftFoot  2.63069 0.748385 -6.23747
LeftToes  1.06245e-005 4.65869e-005 -8.65517e-006
681
root  15.1048 40.6567 9.93571 152.615 87.1261 154.456
RightUpLeg  3.07018 -11.6177 -12.3179
RightLeg  5.20475 -10.9544 2.75157
RightFoot  -0.68488 -0.408957 4.29995
RightToes  0.000481921 0.542163 -0.142578
Spine  -2.18199 -0.37888 -1.93304
Spine1  14.4307 -1.63552 4.33214
HEad  19.2882 -2.48867 -2.19853
LeftShoulder1  9.34769 -13.1033 -49.1412
LeftArm  -8.40834 14.4684 -25.2659
LeftForeArm  174.891 -54.4157 -166.372
LeftHand  -0.25398 0.0180481 5.50724
RightShoulder  4.72085 7.73107 36.0359
RightArm  -3.09476 -13.3837 35.1078
RightForeArm  141.218 49.4631 166.21
RightHand  -1.88125 4.14637 -22.9492
LeftUpLeg  3.03918 7.52858 8.805
LeftLeg  0.269509 12.3482 -3.43093
LeftFoot  2.67131 0.743868 -6.18347
LeftToes  1.06245e-005 4.65869e-005 -8.65517e-006
682
root  15.1083 40.6566 9.92341 153.979 86.9291 155.718
RightUpLeg  3.04321 -11.6466 -12.3568
RightLeg  5.15726 -11.141 2.76367
RightFoot  -0.668939 -0.409423 4.30256
RightToes  0.000481921 0.542163 -0.142578
Spine  -2.05252 -0.567376 -2.3814
Spine1  14.1068 -1.96762 4.83157
HEad  19.4884 -2.27931 -2.29063
LeftShoulder1  9.30652 -13.023 -49.1621
LeftArm  -8.48567 14.8585 -25.0622
LeftForeArm  174.939 -54.4678 -166.35
LeftHand  -0.25398 0.0180481 5.50724
RightShoulder  4.67408 7.58096 36.1788
RightArm  -2.30706 -15.8344 34.5838
RightForeArm  142.473 48.0998 166.87
RightHand  -1.88602 4.12939 -23.0415
LeftUpLeg  2.89933 7.50082 8.74083
LeftLeg  0.246441 12.1965 -3.45183
LeftFoot  2.70109 0.739924 -6.13771
LeftToes  1.06245e-005 4.65869e-005 -8.65517e-006
683
root  15.1114 40.6564 9.9105 155.545 86.7531 157.173
RightUpLeg  3.00095 -11.6289 -12.3428
RightLeg  5.09988 -11.3675 2.74416
RightFoot  -0.647269 -0.412485 4.34379
RightToes  0.000481921 0.542163 -0.142578
Spine  -2.01394 -0.760599 -2.66246
Spine1  13.895 -2.25706 5.14928
HEad  19.6639 -2.05934 -2.28475
LeftShoulder1  9.24504 -12.9437 -49.0724
LeftArm  -8.5495 15.202 -24.9616
LeftForeArm  174.872 -54.5854 -166.288
LeftHand  -0.25398 0.0180481 5.50724
RightShoulder  4.61103 7.44601 36.1237
RightArm  -1.48877 -18.1755 34.4475
RightForeArm  143.44 46.8688 167.427
RightHand  -1.95331 4.40615 -23.1958
LeftUpLeg  2.71632 7.46243 8.68203
LeftLeg  0.282985 12.0787 -3.42141
LeftFoot  2.71222 0.737455 -6.11664
LeftToes  1.06245e-005 4.65869e-005 -8.65517e-006
